<svg id="SvgjsSvg1078" width="288" height="288" xmlns="http://www.w3.org/2000/svg" version="1.1" xmlns:xlink="http://www.w3.org/1999/xlink" xmlns:svgjs="http://svgjs.com/svgjs"><defs id="SvgjsDefs1079"></defs><g id="SvgjsG1080"><svg xmlns="http://www.w3.org/2000/svg" viewBox="0 0 270.933 270.933" width="288" height="288"><path fill="#999999" d="M 24.505978,179.63706 38.75349,61.036139 215.4997,36.006722 l 12.32218,119.371058 -14.24751,49.67378 -88.26255,-23.10307 -71.564633,54.7505 1.179166,-56.67686 z" paint-order="fill markers stroke" class="color999 svgShape"></path><path fill="#9c36b5" d="m 130.00652,187.49001 0.102,-25.02188 97.35058,-6.42668 -11.96978,42.21069 z" paint-order="markers fill stroke" class="color9d5ea6 svgShape"></path><path fill="none" stroke="#000" stroke-linecap="round" stroke-linejoin="round" stroke-width="16.232" d="M 31.875175,180.85881 46.122687,62.257887 222.86888,37.228469 l 12.3222,119.371061 -14.24753,49.67376 -97.07176,-24.08185 -62.755405,55.7293 1.179154,-56.67686 z" paint-order="fill markers stroke" class="colorStroke000 svgStroke"></path><path fill="none" stroke="#000" stroke-linecap="round" stroke-linejoin="round" stroke-width="16.233" d="m 230.04219,103.51024 15.91722,20.93006 -11.20057,5.01141 v 0 z" class="colorStroke000 svgStroke"></path><circle cx="106.616" cy="113.387" r="10.271" fill="#ffffff" class="colorfff svgShape"></circle><circle cx="131.364" cy="114.072" r="10.271" fill="#ffffff" class="colorfff svgShape"></circle><circle cx="157.579" cy="114.463" r="10.271" fill="#ffffff" class="colorfff svgShape"></circle></svg></g></svg>